<?xml version="1.0" standalone="no"?>
<!DOCTYPE svg PUBLIC "-//W3C//DTD SVG 20010904//EN"
 "http://www.w3.org/TR/2001/REC-SVG-20010904/DTD/svg10.dtd">
<svg version="1.0" xmlns="http://www.w3.org/2000/svg"
 width="300.000000pt" height="388.000000pt" viewBox="0 0 300.000000 388.000000"
 preserveAspectRatio="xMidYMid meet">
<metadata>
Created by potrace 1.10, written by Peter Selinger 2001-2011
</metadata>
<g transform="translate(0.000000,388.000000) scale(0.050000,-0.050000)"
fill="#000000" stroke="none">
<path d="M2626 6350 c-444 -67 -794 -243 -1114 -559 -1130 -1120 -775 -3019
681 -3640 254 -109 307 -298 188 -668 -92 -285 -3 -423 209 -325 184 85 221
198 149 464 -76 283 -77 380 -4 339 19 -12 85 -39 146 -61 230 -83 283 -228
203 -550 -84 -332 -71 -437 60 -487 300 -113 458 203 313 625 -106 306 -88
390 83 397 130 6 171 -52 121 -171 -80 -193 -24 -314 146 -314 136 0 202 168
126 321 -73 145 -74 144 339 567 223 230 488 649 488 772 0 62 -41 46 -211
-83 -318 -239 -1115 -367 -1499 -241 -990 327 -1420 1280 -1080 2394 171 561
915 1127 1483 1130 111 0 155 50 74 83 -87 36 -682 40 -901 7z"/>
</g>
</svg>
